<svg id="avatar" xmlns="http://www.w3.org/2000/svg" width="150" height="179"><defs><style>.cls-10,.cls-16,.cls-20,.cls-22,.cls-7,.cls-8,.cls-9{fill-rule:evenodd}.cls-7{fill:#f0f0f0}.cls-8{fill:#f8dba3}.cls-9{fill:#bda67b}.cls-10{fill:#fff}.cls-16{fill:#966c52}.cls-20{fill:#5a4132}.cls-22{fill:#5b4132}</style></defs><g id="Groupe_1" data-name="Groupe 1"><path id="Forme_18" data-name="Forme 18" d="M68.591 64.607c30.057 0 23.807 16.651 23.807 16.651l-.166 9.158-1.332 8.159-6.326 17.65-8.99 6.827-10.155.833-9.989-4.5-6.661-9.985-3.163-8.825-1.332-5.162.5-13.487 1-12.322L56.1 65.939s-17.566-1.332 12.491-1.332Z" style="fill:#ffe8be;fill-rule:evenodd"/><path id="Forme_19" data-name="Forme 19" d="M84.24 116.891s1.221 9.451-2.83 15.486c-3.939 5.868-13.152 8.325-13.152 8.325s-9.39-4.184-12.986-9.824c-3.727-5.845-1.665-13.154-1.665-13.154l15.15 6.66Z" style="fill:#f9dca4;fill-rule:evenodd"/><path id="Forme_20" data-name="Forme 20" d="M62.764 126.549a13.1 13.1 0 0 0 8.99 3.663c5.056 0 12.32-3.663 12.32-3.663l-.166-7.493Z" style="fill:#dec492;fill-rule:evenodd"/><path id="Forme_16" data-name="Forme 16" d="M89.4 104.4s6.636 6.456 8.324 12.322c1.641 5.705-1.665 10.823-1.665 10.823s12.518 6.325 17.314 14.986c4.606 8.317 7.012 18.323 8.139 24.368.2 1.1.493 2.87.493 2.87s-4.207-2.732-15.291-8.422c-4.678-2.4-12.239-7.994-17.314-9.824-16.238-5.858-36.068-3.436-48.779-8.493C31.894 139.562 28 135.865 28 135.865s.834-.839 1.253-1.235a43.1 43.1 0 0 1 11.032-7.582s-1.343-6.269 0-10.989a18.935 18.935 0 0 1 5.494-8.326l8.491 14.32s.966 6.286 4.495 10.657c3.462 4.287 9.489 6.66 9.489 6.66s8.107-3.555 11.987-8.658c3.777-4.969 3.33-11.49 3.33-11.49Z" style="fill:#677079;fill-rule:evenodd"/><path id="Forme_17" data-name="Forme 17" d="M90.566 134.874s-5.256 9.839-16.511 12.71c-1.761.449-9.529-.457-17.058-1.621a23.628 23.628 0 0 1-10.549-10.423s8.942 11.16 21.477 11.16 22.641-11.826 22.641-11.826Z" style="opacity:.99;fill:#2d3541;fill-rule:evenodd"/><path class="cls-7" d="M76.082 141.2a1.481 1.481 0 0 1 2.664 0v7.086l-2.664-.575V141.2Z"/><path id="Rectangle_1_copie" data-name="Rectangle 1 copie" class="cls-7" d="M56.77 145.45v-4.25a1.481 1.481 0 0 1 2.664 0v4.8Z"/></g><g id="ears"><path id="Forme_15" data-name="Forme 15" class="cls-8" d="M94.722 87.773s4.126 2.1 3.11 5.5c-.625 2.359-4.551 8.271-7.176 7.653.143-1.58.713-7.46 2.153-11 1.304-3.209 1.913-2.153 1.913-2.153Z"/><path id="Forme_15_copie" data-name="Forme 15 copie" class="cls-8" d="M41.267 87.773s-4.126 2.1-3.11 5.5c.625 2.359 4.551 8.271 7.176 7.653-.143-1.58-.713-7.46-2.153-11-1.304-3.209-1.913-2.153-1.913-2.153Z"/></g><g id="eye"><path id="Forme_3" data-name="Forme 3" class="cls-9" d="M72.477 92.317s2.319-2.455 4.784-2.631c2.556-.183 5.262 1.913 5.262 1.913A18.756 18.756 0 0 1 77.5 92.8a18.018 18.018 0 0 1-5.023-.483Z"/><path id="Forme_4" data-name="Forme 4" class="cls-10" d="M73.912 91.6s2.024-2.156 4.066-1.674a4.947 4.947 0 0 1 2.87 1.674 9.919 9.919 0 0 1-3.588.957c-1.86.078-4.005-.468-3.348-.957Z"/><circle cx="77.141" cy="91.234" r="1.797" style="fill:#7d8f4d"/><circle id="Ellipse_1_copie" data-name="Ellipse 1 copie" cx="77.141" cy="91" r=".734" style="fill:#0a0a0a"/><circle cx="77.5" cy="90.641" r=".25" style="fill:#fff"/></g><g id="eye_copie" data-name="eye copie"><path id="Forme_3-2" data-name="Forme 3" class="cls-9" d="M63.107 92.317s-2.319-2.455-4.784-2.631c-2.556-.186-5.262 1.914-5.262 1.914a18.756 18.756 0 0 0 5.023 1.2 18.017 18.017 0 0 0 5.023-.483Z"/><path id="Forme_4-2" data-name="Forme 4" class="cls-10" d="M61.672 91.6s-2.024-2.156-4.066-1.674a4.947 4.947 0 0 0-2.87 1.674 9.919 9.919 0 0 0 3.588.957c1.864.078 4.006-.468 3.348-.957Z"/><path d="M58.446 89.687a1.57 1.57 0 1 1-1.795 1.553 1.687 1.687 0 0 1 1.795-1.553Z" style="fill:#7d8f4d;fill-rule:evenodd"/><path id="Ellipse_1_copie-2" data-name="Ellipse 1 copie" d="M58.446 90.369a.642.642 0 1 1-.739.635.693.693 0 0 1 .739-.635Z" style="fill:#0a0a0a;fill-rule:evenodd"/><path class="cls-10" d="M58.087 90.405a.239.239 0 1 1-.239.239.239.239 0 0 1 .239-.239Z"/></g><g id="nose"><path id="Forme_5" data-name="Forme 5" class="cls-16" d="M62.909 101.645s-1.2 1.669-.718 2.869 2.631 1.914 2.631 1.914-2.447-.572-2.87-1.914.957-2.869.957-2.869Z"/><path id="Forme_6" data-name="Forme 6" class="cls-16" d="m66.5 106.667-3.349-1.674s-.15-.87.718-.479a15.069 15.069 0 0 1 2.631 2.153Z"/><path id="Forme_5_copie" data-name="Forme 5 copie" class="cls-16" d="M72.511 101.645s1.2 1.669.718 2.869-2.631 1.914-2.631 1.914 2.448-.572 2.87-1.914-.957-2.869-.957-2.869Z"/><path id="Forme_6_copie" data-name="Forme 6 copie" class="cls-16" d="m68.923 106.667 3.349-1.674s.15-.87-.718-.479a15.069 15.069 0 0 0-2.631 2.153Z"/><path id="Forme_10" data-name="Forme 10" d="M67.932 89.926s.375 14.35-1.435 14.111-2.73-1.2-2.631-2.152 3.827-12.2 3.827-12.2" style="fill:#ffedcd;fill-rule:evenodd"/></g><g id="hair"><g id="lips"><path id="Forme_7" data-name="Forme 7" d="M58.364 112.168a52.352 52.352 0 0 1 6.7-1.914 4.961 4.961 0 0 1 2.631.24 7.039 7.039 0 0 1 3.11-.24 37.727 37.727 0 0 1 6.219 1.914 14.856 14.856 0 0 0-3.588 1.2 12.1 12.1 0 0 1-5.98 1.674 22.314 22.314 0 0 1-5.741-1.674 31.994 31.994 0 0 0-3.351-1.2Z" style="fill:#f0b099;fill-rule:evenodd"/><path id="Forme_8" data-name="Forme 8" d="M60.756 112.168a40.339 40.339 0 0 1 4.306-.239c.874 0 1.708.239 2.631.239 1.142 0 2.36-.239 3.349-.239a21.33 21.33 0 0 1 3.349.239 30.45 30.45 0 0 0-3.588 0c-1.635.117-3.11.239-3.11.239s-1.2-.141-2.631-.239a40.495 40.495 0 0 0-4.306 0Z" style="fill:#c88f79;fill-rule:evenodd"/><path id="Forme_9" data-name="Forme 9" class="cls-20" d="M67.932 109.537a2.072 2.072 0 0 1 1.914-2.153c7.155-.231 6.986 5.565 11.481 3.11 3.261-1.178 8.175-6.741 10.285-17.459-1.214 26.916-12.885 34.379-23.2 35.157-.122-.013-1.811.126-1.914-.718-.38-3.109.957-11 .957-11h2.392s1.211 3.4 3.588 1.913 4.965-3.222 4.306-6.218a12.038 12.038 0 0 0-9.809-2.632Z"/><path id="Forme_9_copie" data-name="Forme 9 copie" class="cls-20" d="M67.742 109.537a2.072 2.072 0 0 0-1.914-2.153c-7.155-.231-6.986 5.565-11.482 3.11-3.261-1.178-8.175-6.741-10.285-17.459 1.214 26.916 12.885 34.379 23.2 35.157.122-.013 1.811.126 1.914-.718.38-3.109-.957-11-.957-11h-2.39s-1.211 3.4-3.588 1.913-4.965-3.222-4.306-6.218a12.038 12.038 0 0 1 9.808-2.632Z"/></g><path id="Forme_14" data-name="Forme 14" d="M49.753 50.942S36.8 61.435 39.707 82.272c.29 2.811 2.329 4.793 3.11 7.175a38.83 38.83 0 0 1 1.435 6.936c.1.567.291-3.479 1.674-6.936 1.315-3.287 3.6-4.469 3.349-6.218-.175-1.212-5.756-7.932.957-12.676 2.976-2.1 8.546-4.572 17.94-4.544 12.815.039 19.248 4.205 21.528 7.891 3.16 5.113-1.533 8.4-1.2 11.241-.175 1.916 1.735 2.813 2.392 5.74s-.429 6.18.239 5.979.669-3.185 2.156-6.46c.844-1.853 2.479-3.347 3.11-5.262 1.763-7.794-1.377-14.987-1.2-18.894.165-3.571 4.784-5.5 4.784-5.5a19.252 19.252 0 0 0-5.5-2.87 45.631 45.631 0 0 0-9.087-1.674 5.331 5.331 0 0 1 2.153-1.674 34.674 34.674 0 0 1 5.5-2.152 26.131 26.131 0 0 0-11.242-3.348 43.431 43.431 0 0 0-13.155 2.155 5.142 5.142 0 0 1 .957-2.87 19.093 19.093 0 0 1 3.349-3.348 29.08 29.08 0 0 0-12.2 2.87c-6.3 3.242-12.2 9.806-12.2 9.806a8.578 8.578 0 0 1 0-2.87 20.61 20.61 0 0 1 1.197-3.827Z" style="fill:#5a4132;opacity:.99;fill-rule:evenodd"/><path id="Forme_2" data-name="Forme 2" class="cls-22" d="M71.281 87.534c.522.59.826 1.2 1.674 1.2s2.56-1.708 5.023-1.913a25.214 25.214 0 0 1 7.415.957 4.864 4.864 0 0 0-2.631-1.913 14.616 14.616 0 0 0-7.415-.478c-2.676.759-4.431 1.733-4.066 2.147Z"/><path id="Forme_2_copie" data-name="Forme 2 copie" class="cls-22" d="M64.78 87.534c-.522.59-.826 1.2-1.674 1.2s-2.56-1.708-5.023-1.913a25.213 25.213 0 0 0-7.415.957A4.864 4.864 0 0 1 53.3 85.86a14.616 14.616 0 0 1 7.415-.478c2.675.764 4.43 1.738 4.065 2.152Z"/></g><path id="Forme_12" data-name="Forme 12" d="M63.6 2.5S-8.514 40.36 7.5 107.069c20.995 56.293 61.925 30.169 92.9 51.619s45.105 15.812 45.105 15.812-8.288.966-20.977-4.662c-10.783-4.783-20.4-14.141-36.959-20.481-12.925-4.943-33.569-3.94-46.614-9.157-17.415-6.959-28.965-28.416-30.8-37.8-3.455-17.664.109-39.3 11.654-57.109C40.794 16 63.6 2.5 63.6 2.5Z" style="fill:#44464a;fill-rule:evenodd"/></svg>