<svg id="avatar" xmlns="http://www.w3.org/2000/svg" width="150" height="179" viewBox="0 0 150 179">
  <defs>
    <style>
      .cls-1 {
        fill: #2c3540;
      }

      .cls-1, .cls-10, .cls-14, .cls-15, .cls-16, .cls-17, .cls-18, .cls-19, .cls-2, .cls-20, .cls-21, .cls-22, .cls-23, .cls-3, .cls-4, .cls-5, .cls-6, .cls-7, .cls-8, .cls-9 {
        fill-rule: evenodd;
      }

      .cls-2 {
        fill: #ffe8be;
      }

      .cls-3 {
        fill: #f9dca4;
      }

      .cls-4 {
        fill: #dec492;
      }

      .cls-5 {
        fill: #677079;
      }

      .cls-6 {
        fill: #2d3541;
      }

      .cls-21, .cls-6 {
        opacity: 0.99;
      }

      .cls-7 {
        fill: #f0f0f0;
      }

      .cls-8 {
        fill: #f8dba3;
      }

      .cls-9 {
        fill: #bda67b;
      }

      .cls-10, .cls-13 {
        fill: #fff;
      }

      .cls-11, .cls-14 {
        fill: #7d8f4d;
      }

      .cls-12, .cls-15 {
        fill: #0a0a0a;
      }

      .cls-16 {
        fill: #966c52;
      }

      .cls-17 {
        fill: #ffedcd;
      }

      .cls-18 {
        fill: #f0b099;
      }

      .cls-19 {
        fill: #c88f79;
      }

      .cls-20, .cls-21 {
        fill: #5a4132;
      }

      .cls-22 {
        fill: #5b4132;
      }

      .cls-23 {
        fill: #44464a;
      }
    </style>
  </defs>
  <path id="Forme_21" data-name="Forme 21" class="cls-1" d="M-11.321,163.514"/>
  <g id="Groupe_1" data-name="Groupe 1">
    <path id="Forme_18" data-name="Forme 18" class="cls-2" d="M68.591,64.607c30.057,0,23.807,16.651,23.807,16.651l-0.166,9.158L90.9,98.575l-6.326,17.65-8.99,6.827-10.155.833-9.989-4.5L48.779,109.4l-3.163-8.825-1.332-5.162,0.5-13.487,1-12.322L56.1,65.939S38.534,64.607,68.591,64.607Z"/>
    <path id="Forme_19" data-name="Forme 19" class="cls-3" d="M84.24,116.891s1.221,9.451-2.83,15.486c-3.939,5.868-13.152,8.325-13.152,8.325s-9.39-4.184-12.986-9.824c-3.727-5.845-1.665-13.154-1.665-13.154l15.15,6.66Z"/>
    <path id="Forme_20" data-name="Forme 20" class="cls-4" d="M62.764,126.549a13.1,13.1,0,0,0,8.99,3.663c5.056,0,12.32-3.663,12.32-3.663l-0.166-7.493Z"/>
    <path id="Forme_16" data-name="Forme 16" class="cls-5" d="M89.4,104.4s6.636,6.456,8.324,12.322c1.641,5.705-1.665,10.823-1.665,10.823s12.518,6.325,17.314,14.986c4.606,8.317,7.012,18.323,8.139,24.368,0.2,1.1.493,2.87,0.493,2.87s-4.207-2.732-15.291-8.422c-4.678-2.4-12.239-7.994-17.314-9.824-16.238-5.858-36.068-3.436-48.779-8.493C31.894,139.562,28,135.865,28,135.865s0.834-.839,1.253-1.235a43.1,43.1,0,0,1,11.032-7.582s-1.343-6.269,0-10.989a18.935,18.935,0,0,1,5.494-8.326l8.491,14.32s0.966,6.286,4.495,10.657c3.462,4.287,9.489,6.66,9.489,6.66s8.107-3.555,11.987-8.658c3.777-4.969,3.33-11.49,3.33-11.49Z"/>
    <path id="Forme_17" data-name="Forme 17" class="cls-6" d="M90.566,134.874s-5.256,9.839-16.511,12.71c-1.761.449-9.529-.457-17.058-1.621A23.628,23.628,0,0,1,46.448,135.54S55.39,146.7,67.925,146.7,90.566,134.874,90.566,134.874Z"/>
    <path class="cls-7" d="M76.082,141.2a1.481,1.481,0,0,1,2.664,0v7.086l-2.664-.575V141.2Z"/>
    <path id="Rectangle_1_copie" data-name="Rectangle 1 copie" class="cls-7" d="M56.77,145.45V141.2a1.481,1.481,0,0,1,2.664,0V146Z"/>
  </g>
  <g id="ears">
    <path id="Forme_15" data-name="Forme 15" class="cls-8" d="M94.722,87.773s4.126,2.1,3.11,5.5c-0.625,2.359-4.551,8.271-7.176,7.653,0.143-1.58.713-7.46,2.153-11C94.113,86.717,94.722,87.773,94.722,87.773Z"/>
    <path id="Forme_15_copie" data-name="Forme 15 copie" class="cls-8" d="M41.267,87.773s-4.126,2.1-3.11,5.5c0.625,2.359,4.551,8.271,7.176,7.653-0.143-1.58-.713-7.46-2.153-11C41.876,86.717,41.267,87.773,41.267,87.773Z"/>
  </g>
  <g id="eye">
    <path id="Forme_3" data-name="Forme 3" class="cls-9" d="M72.477,92.317s2.319-2.455,4.784-2.631c2.556-.183,5.262,1.913,5.262,1.913A18.756,18.756,0,0,1,77.5,92.8,18.018,18.018,0,0,1,72.477,92.317Z"/>
    <path id="Forme_4" data-name="Forme 4" class="cls-10" d="M73.912,91.6s2.024-2.156,4.066-1.674a4.947,4.947,0,0,1,2.87,1.674,9.919,9.919,0,0,1-3.588.957C75.4,92.635,73.255,92.089,73.912,91.6Z"/>
    <circle class="cls-11" cx="77.141" cy="91.234" r="1.797"/>
    <circle id="Ellipse_1_copie" data-name="Ellipse 1 copie" class="cls-12" cx="77.141" cy="91" r="0.734"/>
    <circle class="cls-13" cx="77.5" cy="90.641" r="0.25"/>
  </g>
  <g id="eye_copie" data-name="eye copie">
    <path id="Forme_3-2" data-name="Forme 3" class="cls-9" d="M63.107,92.317s-2.319-2.455-4.784-2.631C55.767,89.5,53.061,91.6,53.061,91.6a18.756,18.756,0,0,0,5.023,1.2A18.017,18.017,0,0,0,63.107,92.317Z"/>
    <path id="Forme_4-2" data-name="Forme 4" class="cls-10" d="M61.672,91.6s-2.024-2.156-4.066-1.674a4.947,4.947,0,0,0-2.87,1.674,9.919,9.919,0,0,0,3.588.957C60.188,92.635,62.33,92.089,61.672,91.6Z"/>
    <path class="cls-14" d="M58.446,89.687a1.57,1.57,0,1,1-1.795,1.553A1.687,1.687,0,0,1,58.446,89.687Z"/>
    <path id="Ellipse_1_copie-2" data-name="Ellipse 1 copie" class="cls-15" d="M58.446,90.369a0.642,0.642,0,1,1-.739.635A0.693,0.693,0,0,1,58.446,90.369Z"/>
    <path class="cls-10" d="M58.087,90.405a0.239,0.239,0,1,1-.239.239A0.239,0.239,0,0,1,58.087,90.405Z"/>
  </g>
  <g id="nose">
    <path id="Forme_5" data-name="Forme 5" class="cls-16" d="M62.909,101.645s-1.2,1.669-.718,2.869,2.631,1.914,2.631,1.914-2.447-.572-2.87-1.914S62.909,101.645,62.909,101.645Z"/>
    <path id="Forme_6" data-name="Forme 6" class="cls-16" d="M66.5,106.667l-3.349-1.674s-0.15-.87.718-0.479A15.069,15.069,0,0,1,66.5,106.667Z"/>
    <path id="Forme_5_copie" data-name="Forme 5 copie" class="cls-16" d="M72.511,101.645s1.2,1.669.718,2.869-2.631,1.914-2.631,1.914,2.448-.572,2.87-1.914S72.511,101.645,72.511,101.645Z"/>
    <path id="Forme_6_copie" data-name="Forme 6 copie" class="cls-16" d="M68.923,106.667l3.349-1.674s0.15-.87-0.718-0.479A15.069,15.069,0,0,0,68.923,106.667Z"/>
    <path id="Forme_10" data-name="Forme 10" class="cls-17" d="M67.932,89.926s0.375,14.35-1.435,14.111-2.73-1.2-2.631-2.152,3.827-12.2,3.827-12.2"/>
  </g>
  <g id="hair">
    <g id="lips">
      <path id="Forme_7" data-name="Forme 7" class="cls-18" d="M58.364,112.168a52.352,52.352,0,0,1,6.7-1.914,4.961,4.961,0,0,1,2.631.24,7.039,7.039,0,0,1,3.11-.24,37.727,37.727,0,0,1,6.219,1.914,14.856,14.856,0,0,0-3.588,1.2,12.1,12.1,0,0,1-5.98,1.674,22.314,22.314,0,0,1-5.741-1.674A31.994,31.994,0,0,0,58.364,112.168Z"/>
      <path id="Forme_8" data-name="Forme 8" class="cls-19" d="M60.756,112.168a40.339,40.339,0,0,1,4.306-.239c0.874,0,1.708.239,2.631,0.239,1.142,0,2.36-.239,3.349-0.239a21.33,21.33,0,0,1,3.349.239,30.45,30.45,0,0,0-3.588,0c-1.635.117-3.11,0.239-3.11,0.239s-1.2-.141-2.631-0.239A40.495,40.495,0,0,0,60.756,112.168Z"/>
      <path id="Forme_9" data-name="Forme 9" class="cls-20" d="M67.932,109.537a2.072,2.072,0,0,1,1.914-2.153c7.155-.231,6.986,5.565,11.481,3.11,3.261-1.178,8.175-6.741,10.285-17.459-1.214,26.916-12.885,34.379-23.2,35.157-0.122-.013-1.811.126-1.914-0.718-0.38-3.109.957-11,.957-11h2.392s1.211,3.4,3.588,1.913,4.965-3.222,4.306-6.218A12.038,12.038,0,0,0,67.932,109.537Z"/>
      <path id="Forme_9_copie" data-name="Forme 9 copie" class="cls-20" d="M67.742,109.537a2.072,2.072,0,0,0-1.914-2.153c-7.155-.231-6.986,5.565-11.482,3.11-3.261-1.178-8.175-6.741-10.285-17.459,1.214,26.916,12.885,34.379,23.2,35.157,0.122-.013,1.811.126,1.914-0.718,0.38-3.109-.957-11-0.957-11H65.828s-1.211,3.4-3.588,1.913-4.965-3.222-4.306-6.218A12.038,12.038,0,0,1,67.742,109.537Z"/>
    </g>
    <path id="Forme_14" data-name="Forme 14" class="cls-21" d="M49.753,50.942S36.8,61.435,39.707,82.272c0.29,2.811,2.329,4.793,3.11,7.175a38.83,38.83,0,0,1,1.435,6.936c0.1,0.567.291-3.479,1.674-6.936,1.315-3.287,3.6-4.469,3.349-6.218-0.175-1.212-5.756-7.932.957-12.676,2.976-2.1,8.546-4.572,17.94-4.544C80.987,66.048,87.42,70.214,89.7,73.9c3.16,5.113-1.533,8.4-1.2,11.241-0.175,1.916,1.735,2.813,2.392,5.74s-0.429,6.18.239,5.979S91.8,93.675,93.287,90.4c0.844-1.853,2.479-3.347,3.11-5.262,1.763-7.794-1.377-14.987-1.2-18.894,0.165-3.571,4.784-5.5,4.784-5.5a19.252,19.252,0,0,0-5.5-2.87A45.631,45.631,0,0,0,85.394,56.2a5.331,5.331,0,0,1,2.153-1.674,34.674,34.674,0,0,1,5.5-2.152,26.131,26.131,0,0,0-11.242-3.348A43.431,43.431,0,0,0,68.65,51.181a5.142,5.142,0,0,1,.957-2.87,19.093,19.093,0,0,1,3.349-3.348,29.08,29.08,0,0,0-12.2,2.87c-6.3,3.242-12.2,9.806-12.2,9.806a8.578,8.578,0,0,1,0-2.87A20.61,20.61,0,0,1,49.753,50.942Z"/>
    <path id="Forme_2" data-name="Forme 2" class="cls-22" d="M71.281,87.534c0.522,0.59.826,1.2,1.674,1.2s2.56-1.708,5.023-1.913a25.214,25.214,0,0,1,7.415.957,4.864,4.864,0,0,0-2.631-1.913,14.616,14.616,0,0,0-7.415-.478C72.671,86.146,70.916,87.12,71.281,87.534Z"/>
    <path id="Forme_2_copie" data-name="Forme 2 copie" class="cls-22" d="M64.78,87.534c-0.522.59-.826,1.2-1.674,1.2s-2.56-1.708-5.023-1.913a25.213,25.213,0,0,0-7.415.957A4.864,4.864,0,0,1,53.3,85.86a14.616,14.616,0,0,1,7.415-.478C63.39,86.146,65.145,87.12,64.78,87.534Z"/>
  </g>
  <path id="Forme_12" data-name="Forme 12" class="cls-23" d="M63.6,2.5s-72.114,37.86-56.1,104.569c20.995,56.293,61.925,30.169,92.9,51.619S145.505,174.5,145.505,174.5s-8.288.966-20.977-4.662c-10.783-4.783-20.4-14.141-36.959-20.481C74.644,144.414,54,145.417,40.955,140.2c-17.415-6.959-28.965-28.416-30.8-37.8C6.7,84.736,10.264,63.1,21.809,45.291,40.794,16,63.6,2.5,63.6,2.5Z"/>
</svg>
